# xmcd CD database file
#
# Track frame offsets:
#	150
#	17874
#	39680
#	69123
#	87287
#	124502
#	136148
#	162630
#	193337
#	213446
#	244018
#	267496
#	304316
#
# Disc length: 4591 seconds
#
# Revision: 0
# Processed by: cddbd v1.5.2PL0 Copyright (c) Steve Scherf et al.
# Submitted via: CDex 1.51
#
DISCID=bc11ed0d
DTITLE=John Mayall`s Bluesbreakers - Live In 1967
DYEAR=2015
DGENRE=Blues
TTITLE0=All Your Love
TTITLE1=Brand New Start
TTITLE2=Double Trouble
TTITLE3=Streamline
TTITLE4=Have You Ever Loved A Woman
TTITLE5=Looking Back
TTITLE6=So Many Roads
TTITLE7=Hi Heel Sneakers
TTITLE8=I Can`t Quit You Baby
TTITLE9=The Stumble
TTITLE10=Someday After Awhile
TTITLE11=San-Ho-Zay
TTITLE12=Stormy Monday
EXTD=YEAR: 2015
EXTT0=
EXTT1=
EXTT2=
EXTT3=
EXTT4=
EXTT5=
EXTT6=
EXTT7=
EXTT8=
EXTT9=
EXTT10=
EXTT11=
EXTT12=
PLAYORDER=
